<svg xmlns="http://www.w3.org/2000/svg" width="400" height="400"><g transform="translate(0.282 0.283)"><path d="M 0 199.382 C 0 49.845 49.845 0 199.382 0 C 348.918 0 398.764 49.845 398.764 199.382 C 398.764 348.918 348.918 398.763 199.382 398.763 C 49.845 398.763 0 348.918 0 199.382" fill="rgb(240,189,102)"></path><path d="M 198.31 219.357 L 134.706 219.357 C 132.833 219.359 131.116 218.317 130.256 216.658 C 129.401 215.004 129.56 213.011 130.664 211.511 L 210.676 102.783 C 213.908 98.38 220.896 101.62 219.577 106.883 L 201.11 179.814 L 264.714 179.814 C 266.592 179.814 268.313 180.861 269.164 182.513 C 270.019 184.167 269.86 186.161 268.756 187.66 L 188.744 296.394 C 185.512 300.797 178.524 297.557 179.843 292.294 L 198.31 219.363 Z" fill="rgb(255, 255, 255)"></path></g></svg>